<svg width="866" height="866" viewBox="0 0 866 866" fill="none" xmlns="http://www.w3.org/2000/svg">
<path d="M753.003 650.631C771.931 622.635 786.92 592.962 797.945 561.278C805.624 539.211 811.339 516.675 814.896 493.576C816.548 482.851 817.823 472.102 818.587 461.275C818.948 456.155 818.889 451.016 819.349 445.93C819.89 439.937 819.874 433.954 819.687 427.988C819.225 413.253 818.367 398.547 816.442 383.9C814.34 367.914 811.39 352.109 807.366 336.514C801.436 313.53 793.44 291.278 783.392 269.751C775.001 251.772 765.281 234.565 754.231 218.098C743.32 201.839 731.207 186.538 717.967 172.104C711.351 164.891 704.487 157.926 697.361 151.243C684.79 139.455 671.47 128.546 657.415 118.553C641.05 106.917 623.901 96.5913 605.919 87.648C583.222 76.3593 559.662 67.3498 535.186 60.7311C516.085 55.566 496.736 51.7756 477.047 49.6639C466.979 48.5841 456.91 47.8451 446.793 47.4133C440.931 47.1632 435.072 46.9209 429.221 47.0669C413.99 47.447 398.807 48.4282 383.667 50.3583C364.748 52.7701 346.142 56.5866 327.804 61.7202C309.439 66.8615 291.595 73.4632 274.194 81.2947C253.856 90.4475 234.507 101.337 216.052 113.831C206.232 120.479 196.801 127.659 187.647 135.193C186.318 136.287 185.582 136.359 184.347 135.115C174.183 124.863 163.955 114.673 153.743 104.46C281.637 -11.949 522.275 -50.5812 704.524 96.9588C905.693 259.817 910.823 542.124 762.912 712.946C761.897 713.004 761.457 712.157 760.881 711.582C751.348 702.073 741.827 692.552 732.313 683.024C730.206 680.915 730.183 680.863 731.963 678.692C739.33 669.712 746.234 660.386 753.003 650.631Z" fill="#52FF01"/>
<path d="M77.9964 187.164C85.9895 175.754 94.2022 164.845 103.104 154.577C104.318 155.038 104.905 155.854 105.592 156.54C114.86 165.794 124.122 175.053 133.38 184.319C135.801 186.742 135.812 186.771 133.534 189.582C118.723 207.855 105.591 227.26 94.3019 247.898C84.5539 265.719 76.3029 284.214 69.47 303.344C62.9723 321.536 57.9113 340.12 54.2144 359.075C52.0678 370.082 50.4467 381.166 49.2313 392.319C47.4697 408.485 46.758 424.692 47.083 440.937C47.4197 457.768 48.8816 474.504 51.3857 491.168C54.0555 508.935 57.9358 526.409 62.9977 543.632C68.4123 562.057 75.2646 579.934 83.3732 597.34C93.5193 619.12 105.661 639.724 119.705 659.209C128.712 671.704 138.475 683.574 148.89 694.933C166.874 714.547 186.693 732.068 208.288 747.587C234.214 766.219 262.062 781.343 291.783 793.003C315.712 802.391 340.33 809.341 365.655 813.767C377.422 815.824 389.259 817.24 401.162 818.331C417.87 819.863 434.601 820.231 451.309 819.384C485.175 817.666 518.357 811.904 550.724 801.542C571.954 794.746 592.487 786.324 612.228 776.029C635.371 763.959 657.063 749.628 677.31 733.134C677.973 732.594 678.65 732.071 679.337 731.563C679.522 731.426 679.769 731.371 679.674 731.411C690.47 742.22 701.173 752.934 712.008 763.781C707.798 767.615 703.082 771.271 698.38 774.94C679.843 789.405 660.244 802.251 639.602 813.51C620.48 823.941 600.64 832.77 580.168 840.191C557.167 848.528 533.585 854.716 509.517 859.017C499.806 860.752 490.03 862.115 480.2 863.091C468.667 864.236 457.129 864.995 445.54 865.393C438.945 865.619 432.339 865.942 425.768 865.679C408.728 864.997 391.71 864.078 374.779 861.693C357.242 859.222 339.923 855.846 322.783 851.423C300.027 845.551 277.974 837.687 256.533 828.122C234.505 818.294 213.476 806.614 193.452 793.162C175.375 781.019 158.31 767.592 142.214 752.902C117.555 730.397 95.7655 705.43 76.8079 677.956C55.5939 647.211 38.7296 614.254 26.1692 579.088C17.2804 554.201 10.7512 528.712 6.64296 502.6C5.07094 492.608 3.78029 482.593 2.93157 472.508C2.18436 463.63 1.81867 454.744 1.38855 445.852C1.05739 439.005 0.825683 432.158 1.10856 425.343C1.5683 414.268 1.97574 403.184 3.04106 392.133C5.85845 362.906 11.4819 334.247 20.0508 306.17C27.5921 281.46 37.3366 257.635 49.2424 234.71C57.7538 218.322 67.1997 202.484 77.9964 187.164Z" fill="#52FF01"/>
<path d="M445.008 511.575C426.994 529.589 409.168 547.425 391.327 565.245C388.096 568.472 388.903 568.373 385.823 565.294C341.063 520.554 296.315 475.803 251.576 431.043C250.729 430.195 249.684 429.498 249.194 428.32C249.539 427.174 250.521 426.567 251.282 425.804C262.78 414.279 274.296 402.771 285.808 391.259C286.241 390.826 286.705 390.422 287.105 389.96C288.051 388.868 288.929 388.958 289.853 389.998C290.421 390.637 291.062 391.211 291.668 391.817C322.915 423.064 354.164 454.308 385.395 485.572C386.341 486.519 387.09 487.665 388.194 489.049C451.814 425.429 514.963 362.28 578.032 299.211C579.37 299.418 579.882 300.318 580.539 300.973C592.237 312.645 603.919 324.333 615.604 336.018C616.123 336.538 616.625 337.074 617.147 337.59C617.815 338.252 617.682 338.875 617.08 339.484C616.305 340.267 615.531 341.051 614.752 341.83C558.232 398.35 501.712 454.871 445.008 511.575Z" fill="#52FF01"/>
</svg>
